<svg id="visual" viewBox="0 0 900 600" width="900" height="600" xmlns="http://www.w3.org/2000/svg" xmlns:xlink="http://www.w3.org/1999/xlink" version="1.1"><path d="M0 454L37.5 464C75 474 150 494 225 513.3C300 532.7 375 551.3 450 548.3C525 545.3 600 520.7 675 520C750 519.3 825 542.7 862.5 554.3L900 566L900 601L862.5 601C825 601 750 601 675 601C600 601 525 601 450 601C375 601 300 601 225 601C150 601 75 601 37.5 601L0 601Z" fill="#1a5990"></path><path d="M0 491L37.5 503.3C75 515.7 150 540.3 225 540C300 539.7 375 514.3 450 502.8C525 491.3 600 493.7 675 502.7C750 511.7 825 527.3 862.5 535.2L900 543L900 601L862.5 601C825 601 750 601 675 601C600 601 525 601 450 601C375 601 300 601 225 601C150 601 75 601 37.5 601L0 601Z" fill="#4396a5"></path><path d="M0 565L37.5 560C75 555 150 545 225 543.7C300 542.3 375 549.7 450 545.2C525 540.7 600 524.3 675 516.7C750 509 825 510 862.5 510.5L900 511L900 601L862.5 601C825 601 750 601 675 601C600 601 525 601 450 601C375 601 300 601 225 601C150 601 75 601 37.5 601L0 601Z" fill="#a8cbba"></path><path d="M0 552L37.5 551.5C75 551 150 550 225 547.8C300 545.7 375 542.3 450 543.3C525 544.3 600 549.7 675 555.2C750 560.7 825 566.3 862.5 569.2L900 572L900 601L862.5 601C825 601 750 601 675 601C600 601 525 601 450 601C375 601 300 601 225 601C150 601 75 601 37.5 601L0 601Z" fill="#fffff5"></path></svg>